<?xml version="1.0" encoding="utf-8"?>
<!-- Generator: Adobe Illustrator 16.0.0, SVG Export Plug-In . SVG Version: 6.00 Build 0)  -->
<!DOCTYPE svg PUBLIC "-//W3C//DTD SVG 1.1//EN" "http://www.w3.org/Graphics/SVG/1.1/DTD/svg11.dtd">
<svg version="1.1" id="Ebene_1" xmlns="http://www.w3.org/2000/svg" xmlns:xlink="http://www.w3.org/1999/xlink" x="0px" y="0px"
	 width="256px" height="256px" viewBox="0 0 256 256" enable-background="new 0 0 256 256" xml:space="preserve">
<path fill="#B8CCFF" stroke="#000000" stroke-miterlimit="10" d="M8.768,114.924c-11.979,7.893,14.498,48.664,14.498,48.664
	s27.098,39.907,37.948,32.76c12.687-8.356-13.46-48.89-13.46-48.89S20.747,107.035,8.768,114.924z"/>
<path fill="#B8CCFF" stroke="#000000" stroke-miterlimit="10" d="M244.65,116.625c-12.891-6.294-32.274,32.676-32.274,32.676
	s-18.343,39.102-6.667,44.804c13.649,6.666,33.016-31.936,33.016-31.936S257.539,122.92,244.65,116.625z"/>
<path fill="#B8CCFF" stroke="#000000" stroke-miterlimit="10" d="M255,122.958C255,94.625,127,94,127,94S0,95.333,0,121
	c0,30,127,30.916,127,30.916S255,151.291,255,122.958z"/>
<circle fill="#F8BF91" stroke="#000000" stroke-miterlimit="10" cx="128" cy="128" r="46.5"/>
<g>
	<g>
		<path fill="#663333" d="M204.768,196.728c6.823-7.14,13.608-14.431,20.961-21.031c7.247-6.506,16.002-11.696,24.082-17.106
			c4.795-3.211,0.295-11.011-4.543-7.771c-8.609,5.765-17.499,11.438-25.44,18.11c-7.685,6.456-14.496,14.187-21.423,21.436
			C194.396,194.558,200.751,200.931,204.768,196.728L204.768,196.728z"/>
	</g>
</g>
<g>
	<g>
		<line fill="none" stroke="#000000" stroke-width="3" stroke-miterlimit="10" x1="42.519" y1="189.81" x2="107.095" y2="191.133"/>
		<g>
			<polygon points="45.505,188.541 26.577,176.581 3.264,176.104 15.894,189.265 2.736,201.896 26.048,202.374 45.45,191.203 			"/>
		</g>
		<g>
			<polygon points="98.443,202.067 103.389,191.058 98.898,179.854 125,191.5 			"/>
		</g>
	</g>
</g>
<path fill="#DA9C20" d="M180.25,141.75c-0.225-2.709-0.93-4.937-2.095-7.036c0.459-1.475,0.199-3.041-0.664-4.27
	c0.071-0.341,0.098-0.688,0.084-1.042c0.066-0.028,0.132-0.056,0.198-0.085c4.412-1.923,2.396-9.246-2.123-9.309
	c0.479-1.519,0.422-3.216-0.248-4.502c0.508-0.373,0.979-0.771,1.383-1.22c1.688-1.877,1.744-4.089,0.806-5.779
	c0.201-0.755,0.343-1.522,0.409-2.381c0.221-2.85-2.482-4.987-5.128-4.979c-1.101-0.376-2.26-0.321-3.305,0.073
	c0.018-0.282,0.046-0.56,0.058-0.845c0.051-1.25-0.271-2.251-0.823-3.012c-0.045-0.965-0.139-1.933-0.355-2.942
	c-0.454-2.116-2.345-3.403-4.347-3.596c0.452-3.354-2.248-6.531-5.459-6.081c-0.28-0.85-0.619-1.69-1.073-2.517
	c-1.081-1.967-3.352-2.743-5.418-2.299c-1.522-4.104-7.527-4.638-9.323-0.107c-0.797-0.535-1.697-0.808-2.604-0.822
	c-2.027-3.122-6.923-1.92-8.576,1.396c-0.852-0.451-1.823-0.674-2.828-0.644c-1.398-1.125-3.178-1.026-4.698-0.251
	c-0.099-0.216-0.192-0.433-0.303-0.648c-2.207-4.285-7.807-2.524-9.062,1.296c-1.142,0.099-2.229,0.583-3.064,1.36
	c-1.427-0.036-2.908,0.498-3.924,1.472c-0.163-0.101-0.322-0.203-0.494-0.297c-2.079-1.136-4.975-0.752-6.435,1.189
	c-2.515-0.895-5.832,0.785-6.785,3.424c-0.387,1.072-0.558,2.227-0.658,3.393c-0.112,0.05-0.216,0.111-0.321,0.17
	c-2.05-0.553-4.361,0.091-5.518,2.243c-1.017,1.891-1.85,3.92-2.623,5.988c-1.597,1.005-2.497,3.003-2.403,4.875
	c-0.029,0.06-0.055,0.12-0.081,0.181c-3.245,1.576-6.734,4.312-6.354,7.854c0.116,1.08,0.334,2.149,0.741,3.119
	c-1.425,2.152-0.568,5.188,1.518,6.747c-0.331,1.332-0.169,2.472,0.314,3.453c-0.134,1.662-0.113,3.289,0.123,4.786
	c-0.998,1.618-1.49,3.449-0.864,5.725c0.334,1.215,0.85,2.118,1.487,2.813c0.158,0.957,0.38,1.896,0.683,2.797
	c-0.624,1.886-0.112,3.846,1.346,5.187c0.004,0.019,0.011,0.036,0.016,0.054c-0.008,0.017-0.019,0.031-0.027,0.048
	c-1.403,2.794-0.31,6.537,2.988,7.345c0.649,0.159,1.271,0.261,1.905,0.317c0.012,0.389,0.039,0.783,0.103,1.19
	c0.083,0.523,0.292,1.01,0.587,1.449c-2.329,3.996,2.751,8.91,6.728,6.686c3.417,2.508,9.541,1.566,13.732-1.647
	c0,0.001,0,0.001,0.001,0.001c2.991,1.83,6.193-0.083,7.345-2.988c0.205-0.518,0.364-1.043,0.507-1.572
	c2.04,0.521,4.202-0.162,5.489-2.233c0.105-0.169,0.198-0.341,0.292-0.512c1.191,1.698,2.975,2.342,4.659,2.127
	c0.204,0.555,0.419,1.104,0.664,1.635c1.521,3.288,5.589,2.993,7.82,0.866c0.145,0.294,0.271,0.592,0.43,0.884
	c1.01,1.855,3.288,2.629,5.325,2.323c1.638,2.646,5.527,3.466,7.708,1.438c2.285,1.831,5.54,0.443,7.01-1.914
	c0.501,0.479,0.993,0.961,1.489,1.415c3.052,2.792,7.954,1.112,8.479-2.923c0.404-0.671,0.698-1.453,0.806-2.362
	c0.207-0.828,0.233-1.654,0.099-2.479c1.778-0.75,3.211-2.341,3.232-4.313c3.37,2.071,8.652-0.835,7.633-5
	C178.636,146.044,180.472,144.434,180.25,141.75z"/>
</svg>
