<?xml version="1.0" encoding="utf-8"?>
<!-- Generator: Adobe Illustrator 16.0.0, SVG Export Plug-In . SVG Version: 6.00 Build 0)  -->
<!DOCTYPE svg PUBLIC "-//W3C//DTD SVG 1.1//EN" "http://www.w3.org/Graphics/SVG/1.1/DTD/svg11.dtd">
<svg version="1.1" id="Ebene_1" xmlns="http://www.w3.org/2000/svg" xmlns:xlink="http://www.w3.org/1999/xlink" x="0px" y="0px"
	 width="256px" height="256px" viewBox="0 0 256 256" enable-background="new 0 0 256 256" xml:space="preserve">
<path fill="#B8CCFF" stroke="#000000" stroke-miterlimit="10" d="M255,122.958C255,94.625,127,94,127,94S0,95.333,0,121
	c0,30,127,30.916,127,30.916S255,151.291,255,122.958z"/>
<circle fill="#F8BF91" stroke="#000000" stroke-miterlimit="10" cx="128" cy="128" r="46.5"/>
<path fill="#E5C890" d="M178.555,125.245c-0.31-13.778-6.777-25.238-16.423-34.689c-2.855-2.798-5.976-5.298-9.181-7.683
	c-0.415-0.416-0.82-0.838-1.249-1.242c-0.669-0.629-1.394-1.009-2.128-1.22c-0.642-0.459-1.283-0.917-1.926-1.374
	c-0.493-0.351-0.942-0.735-1.372-1.135c0.002-0.3-0.011-0.601-0.011-0.9c-0.525-0.095-1.053-0.175-1.586-0.223
	c-0.517-0.047-1.034-0.083-1.551-0.116c-0.356-0.316-0.731-0.612-1.148-0.857c-1.027-0.602-2.499-0.889-3.647-1.14
	C137.748,74.59,138,74.542,137,74.513V74.5c1,0.028,1.006,0.091,1.865,0.19c-0.26-0.609-0.412-1.228-0.632-1.853
	c-0.135-0.366-0.281-0.699-0.494-1.016c0.564-1.944,1.574-3.648,3.144-5.421c3.653-0.122,7.391-0.184,10.839,0.98
	c1.773-0.985,2.587-2.993,2.419-4.903c1.035-2.02,1.068-4.431-0.031-6.389c0.395-0.941,0.694-1.883,0.878-2.76
	c0.881-4.206-2.976-7.371-6.826-5.865c-0.27-0.083-0.546-0.137-0.826-0.17c-1.031-1.85-3.309-2.501-5.356-2.059
	c-1.755-1.48-4.193-1.801-6.054-0.583c-1.568-1.797-4.106-2.735-6.211-1.439c-1.854-1.853-5.01-2.149-7.083-0.081l-0.004,0.004
	c-0.958-0.501-2.057-0.667-3.149-0.473c-1.883-1.072-4.537-0.62-6.18,0.802c-0.869,0.752-1.868,1.327-2.937,1.806
	c-1.652-1.8-4.042-2.625-6.385-1.254c-0.464,0.272-0.896,0.595-1.314,0.939c-1.975-0.683-4.388-0.132-5.758,1.62
	c-1.873,0.734-3.343,2.379-3.238,4.591c0.042,0.228,0.058,0.453,0.061,0.677c-1.577,1.945-1.642,4.619,0.236,6.691
	c0.936,1.032,1.982,1.921,3.096,2.726c1.792,1.856,4.19,3.432,5.707,4.47c1.207,0.826,2.499,1.446,3.843,1.929
	c0.376,0.016,0.753,0.032,1.129,0.048c2.203,1.442,4.845,1.863,6.993,1.138c1.196,1.149,2.304,2.712,2.779,4.063
	c-1.371,1.477-2.535,3.226-4.031,4.541c-1.363-0.018-2.726-0.072-4.088-0.13c-0.183,0.058-0.361,0.127-0.547,0.179
	c-2.645,0.729-5.344,1.001-7.953,1.902c-2.079,0.718-3.765,1.814-5.042,3.191c-1.609,0.325-3.099,1.349-3.838,3.247
	c-2.04,5.239-4.402,10.129-6.026,15.393c-4.814,8.192-8.939,16.958-8.254,26.382c0.477,6.553,3.021,13.037,5.61,19.008
	c2.209,5.093,4.455,11.722,8.789,15.415c1.888,1.609,4.107,1.537,5.837,0.606c1.026,0.735,2.137,1.408,3.341,2.009
	c2.47,1.231,4.812,0.342,6.225-1.301c1.769,0.749,3.96,0.004,5.396-1.535c1.737,2.955,6.863,3.229,8.494-0.019
	c0.648,1.08,1.667,1.926,2.914,2.192c2.081,0.444,4.857,0.47,7.499-0.069c0.632,3.095,3.71,5.417,7.187,3.398
	c2.121-1.231,4.01-2.621,5.728-4.12c0.866,1.557,2.583,2.623,4.416,2.636c2.892,0.02,5.498-0.817,7.744-2.233
	c0.438-0.124,0.869-0.318,1.279-0.615c1.329-0.961,2.875-1.438,4.333-2.167c0.732-0.366,1.354-0.967,1.96-1.509
	c0.305-0.312,0.6-0.632,0.886-0.961c0.127-0.117,0.217-0.205,0.289-0.28c0.653-0.292,1.188-0.682,1.607-1.142
	C176.808,150.204,178.798,136.068,178.555,125.245z"/>
<path fill="#FF2410" d="M137.032,66.5c-6.583,0.36-13.135,0.664-19.719,1.13c-6.432,0.456-5.904,8.075,0.529,7.618
	c6.584-0.467,13.135-0.77,19.719-1.129C144.005,73.767,143.464,66.149,137.032,66.5z"/>
</svg>
