<?xml version="1.0" encoding="utf-8"?>
<!-- Generator: Adobe Illustrator 16.0.0, SVG Export Plug-In . SVG Version: 6.00 Build 0)  -->
<!DOCTYPE svg PUBLIC "-//W3C//DTD SVG 1.1//EN" "http://www.w3.org/Graphics/SVG/1.1/DTD/svg11.dtd">
<svg version="1.1" id="Ebene_1" xmlns="http://www.w3.org/2000/svg" xmlns:xlink="http://www.w3.org/1999/xlink" x="0px" y="0px"
	 width="256px" height="256px" viewBox="0 0 256 256" enable-background="new 0 0 256 256" xml:space="preserve">
<path fill="#FF00FF" stroke="#000000" stroke-miterlimit="10" d="M255,122.958C255,94.625,127,94,127,94S0,95.333,0,121
	c0,30,127,30.916,127,30.916S255,151.291,255,122.958z"/>
<circle fill="#FFBF91" stroke="#000000" stroke-miterlimit="10" cx="128" cy="128" r="46.5"/>
<path d="M170.275,96.534c-0.513-2.69-1.104-5.349-1.787-7.956c-0.891-3.403-2.344-6.483-4.324-9.083
	c0.022-1.47-0.433-2.954-1.347-4.518c-0.495-0.847-1.177-1.464-1.949-1.866c-0.239-0.473-0.492-0.94-0.801-1.384
	c-1.059-1.522-2.469-2.284-3.911-2.376c-0.621-1.535-1.416-3.057-2.501-4.273c-2.553-2.862-5.718-3.565-9.279-2.814
	c-2.202,0.057-4.069,1.594-4.662,3.638c-0.534-1.517-1.777-2.78-3.385-3.222c-2.53-0.696-5.077,0.734-5.996,3.111
	c-1.411-0.061-2.751,0.258-3.928,1.15c-0.922-1.167-2.33-1.94-3.905-1.94c-1.055,0-2.038,0.347-2.852,0.923
	c-0.686-1.853-1.682-3.546-3.113-4.958c-1.639-1.617-4.104-1.792-5.962-0.81c-0.303-0.033-0.605-0.046-0.907-0.034
	c-1.717-4.489-9.593-3.86-9.667,1.879c-0.032,2.529-0.181,5.025-0.429,7.503c-0.585,4.554-1.858,8.749-4.353,13.29
	c-3.408,6.203-7.384,11.891-9.823,18.592c-1.423,3.912-2.028,8.142-2.257,12.395c-0.19,0.367-0.365,0.74-0.505,1.13
	c-0.819,2.273-1.066,4.648-1.305,7.042c-0.078,0.783,0.027,1.861,0.21,3.066c-0.13,1.088-0.25,2.181-0.35,3.284
	c-0.369,4.063-1.104,8.261,1.23,11.701c-0.469,2.294-0.668,4.628-0.419,6.972c0.486,4.585,3.982,10.594,9.348,9.908
	c1.884-0.24,3.339-1.143,4.51-2.41c0.269,1.413,0.615,2.796,1.071,4.105c1.01,2.898,4.485,4.859,7.345,2.988
	c0.897-0.587,1.661-1.243,2.33-1.956c1.167,2.066,3.93,3.329,6.163,2.372c0.226,0.008,0.453-0.004,0.681-0.026
	c0.152,0.354,0.312,0.71,0.485,1.066c1.178,2.425,4.645,3.125,6.841,1.794c1.054-0.639,1.955-1.377,2.778-2.172
	c0.434,1.192,1.14,2.33,2.413,3.39c2.053,1.707,5.065,2.106,7.071,0c0.95-0.997,1.721-2.087,2.438-3.211
	c0.521,0.024,1.068-0.008,1.653-0.12c1.965-0.377,3.317-1.554,4.634-2.812c0.927,0.385,1.892,0.714,2.83,1.029
	c1.731,1.953,4.396,2.715,6.875,3.04c0.238,0.031,0.471,0.048,0.704,0.067c0.663,0.237,1.343,0.438,2.052,0.573
	c5.447,1.046,9.401-2.607,13.064-6.067c0.366-0.346,0.636-0.717,0.863-1.096c0.052-0.055,0.111-0.104,0.162-0.16
	c2.537,0.237,5.131-1.294,5.189-4.779c0.041-2.454,0.032-4.908,0.014-7.362c0.759-4.692,0.71-9.62,0.603-13.877
	c-0.046-1.837-0.143-3.674-0.26-5.511c0.379-3.96,0.915-7.901,1.043-11.885C175.099,107.636,173.891,101.197,170.275,96.534z"/>
</svg>
